<?xml version="1.0" encoding="utf-8"?>
<!-- Generator: Adobe Illustrator 17.0.0, SVG Export Plug-In . SVG Version: 6.00 Build 0)  -->
<!DOCTYPE svg PUBLIC "-//W3C//DTD SVG 1.1//EN" "http://www.w3.org/Graphics/SVG/1.1/DTD/svg11.dtd">
<svg version="1.1" id="图层_1" xmlns="http://www.w3.org/2000/svg" xmlns:xlink="http://www.w3.org/1999/xlink" x="0px" y="0px"
	 width="364px" height="326px" viewBox="0 0 364 326" enable-background="new 0 0 364 326" xml:space="preserve">
<g>
	<path fill="none" stroke="#FFFFFF" stroke-width="2" stroke-linecap="round" stroke-linejoin="round" stroke-miterlimit="10" d="
		M0.868,237.539c5.982-2.809,13.709-6.822,20.452-14.484c9.363-10.639,23.657-55.68,29.384-62.653
		c5.827-7.096,15.827-21.322,39.5-32.35c8.989-4.187,83.801-39.036,83.801-39.036s28.513,9.759,19.411,41.7
		c-10.34,36.287-58.405,36.241-82.393,34.195c-21.563-1.839-32.26-0.514-45.369,7.012c-18.461,10.598-31.573,42.43-35.274,54.616
		S7.217,248.182,7.217,248.182"/>
	<path fill="none" stroke="#FFFFFF" stroke-width="2" stroke-linecap="round" stroke-linejoin="round" stroke-miterlimit="10" d="
		M189.847,101.248L83.917,143.327c0,0-15.417,6.076-24.396,14.997s-14.241,21.834-14.241,21.834s-16.53,42.771-22.17,48.886
		c-8.141,8.828-18.455,13.632-18.455,13.632"/>
	<path fill="none" stroke="#FFFFFF" stroke-width="2" stroke-linecap="round" stroke-linejoin="round" stroke-miterlimit="10" d="
		M189.919,101.441c3.872-1.433,7.843-2.884,11.877-4.333c48.043-17.262,104.702-35.604,108.695-37.002
		c12.291-4.303,53.593-20.431,52.35-59.051L126.755,111.026"/>
	<path fill="none" stroke="#FFFFFF" stroke-width="2" stroke-linecap="round" stroke-linejoin="round" stroke-miterlimit="10" d="
		M320.146,56.299l35.103-11.895c-2.715,35.212-41.845,45.749-53.44,48.435c-3.767,0.872-57.069,11.893-102.436,22.79
		c-1.418,0.341-2.828,0.682-4.228,1.024"/>
	<g>
		<path fill="none" stroke="#FFFFFF" stroke-width="2" stroke-linecap="round" stroke-linejoin="round" stroke-miterlimit="10" d="
			M312.059,89.985l25.989-4.008c-8.749,34.215-49.109,37.84-60.993,38.483c-3.265,0.177-42.684,1.387-82.937,3.512"/>
	</g>
	<path fill="none" stroke="#FFFFFF" stroke-width="2" stroke-linecap="round" stroke-linejoin="round" stroke-miterlimit="10" d="
		M299.225,121.035l23.233-1.108c-11.459,30.833-49.199,30.229-60.27,29.658c-3.005-0.155-38.795-2.839-75.812-4.816"/>
	<g>
		<path fill="none" stroke="#FFFFFF" stroke-width="2" stroke-linecap="round" stroke-linejoin="round" stroke-miterlimit="10" d="
			M262.188,149.585c1.629,0.084,3.839,0.168,6.455,0.153l21.935,3.268c-15.418,24.96-48.319,17.823-57.902,15.386
			c-2.331-0.593-27.333-7.572-55.551-14.924"/>
	</g>
	<path fill="none" stroke="#FFFFFF" stroke-width="2" stroke-linecap="round" stroke-linejoin="round" stroke-miterlimit="10" d="
		M246.789,170.888l18.599,5.88c-16.753,19.431-44.184,8.732-52.125,5.306c-2.021-0.872-24.52-11.206-49.191-21.978"/>
	<path fill="none" stroke="#FFFFFF" stroke-width="2" stroke-linecap="round" stroke-linejoin="round" stroke-miterlimit="10" d="
		M227.268,186.694l11.029,5.17c-19.132,17.091-44.944,2.922-52.372-1.506c-1.778-1.06-20.423-12.766-41.819-25.702"/>
	<path fill="none" stroke="#FFFFFF" stroke-width="2" stroke-linecap="round" stroke-linejoin="round" stroke-miterlimit="10" d="
		M202.137,197.747l12.901,8.35c-21.246,14.377-44.93-3.119-51.7-8.501c-1.659-1.319-19.563-15.802-39.566-32.003"/>
	<path fill="none" stroke="#FFFFFF" stroke-width="2" stroke-linecap="round" stroke-linejoin="round" stroke-miterlimit="10" d="
		M176.415,206.112l16.352,13.046c-21.976,11.889-43.248-7.348-49.291-13.216c-1.671-1.622-21.764-21.469-42.183-41.663"/>
	<path fill="none" stroke="#FFFFFF" stroke-width="2" stroke-linecap="round" stroke-linejoin="round" stroke-miterlimit="10" d="
		M123.388,233.576l14.396,21.309c-22.14,4.318-35.285-17.996-38.911-24.682c-1.178-2.172-17.491-32.886-31.458-59.23"/>
	<path fill="none" stroke="#FFFFFF" stroke-width="2" stroke-linecap="round" stroke-linejoin="round" stroke-miterlimit="10" d="
		M110.138,245.5l14.592,30.47c-22.455,2.136-33.361-21.354-36.318-28.362c-0.961-2.277-14.2-34.436-25.531-62.018
		c-1.556-3.787-2.833-6.693-3.819-8.841"/>
	<path fill="none" stroke="#FFFFFF" stroke-width="2" stroke-linecap="round" stroke-linejoin="round" stroke-miterlimit="10" d="
		M97.076,262.638l14.161,37.616c-24.752-1.031-33.109-28.219-35.279-36.286c-0.705-2.621-10.308-39.59-18.517-71.293
		c-1.241-4.794-2.275-8.374-3.058-10.918"/>
	<g>
		<path fill="none" stroke="#FFFFFF" stroke-width="2" stroke-linecap="round" stroke-linejoin="round" stroke-miterlimit="10" d="
			M88.485,289.061c2.888,20.546,4.706,35.281,4.706,35.281c-26.122-5.973-29.658-36.536-30.378-45.544
			c-0.187-2.344-6.341-70.083-8.782-96.933"/>
	</g>
	<path fill="none" stroke="#FFFFFF" stroke-width="2" stroke-linecap="round" stroke-linejoin="round" stroke-miterlimit="10" d="
		M165.315,220.528l8.153,7.388c-21.21,10.67-40.87-8.206-46.445-13.951c-1.737-1.79-25.036-26.223-46.029-48.268"/>
	<path fill="none" stroke="#FFFFFF" stroke-width="2" stroke-linecap="round" stroke-linejoin="round" stroke-miterlimit="10" d="
		M140.453,224.916l14.802,15.249c-21.039,8.137-37.894-11.524-42.636-17.47c-1.541-1.932-22.988-29.306-41.358-52.79"/>
	<path fill="none" stroke="#FFFFFF" stroke-width="2" stroke-linecap="round" stroke-linejoin="round" stroke-miterlimit="10" d="
		M73.9,311.921l1.036,13.132c-23.483-7.893-23.932-36.334-23.768-44.686c0.041-2.078-2.13-62.503-3.149-90.699"/>
	<path fill="none" stroke="#FFFFFF" stroke-width="2" stroke-linecap="round" stroke-linejoin="round" stroke-miterlimit="10" d="
		M52.94,298.477l0.423,12.279c-20.543-7.9-19.86-33.16-19.396-40.568c0.106-1.689,0.356-35.102,0.496-54.885"/>
	<path fill="none" stroke="#FFFFFF" stroke-width="2" stroke-linecap="round" stroke-linejoin="round" stroke-miterlimit="10" d="
		M36.804,293.395c-18.793-9.724-11.514-21.389-18.853-30.728c-3.042-3.871-10.45-4.475-10.45-4.475"/>
</g>
</svg>
